<svg width="18.000000" height="18.343811" viewBox="0 0 18 18.3438" fill="none" xmlns="http://www.w3.org/2000/svg" xmlns:xlink="http://www.w3.org/1999/xlink">
	<desc>
			Created with Pixso.
	</desc>
	<defs>
		<clipPath id="clip1_2970">
			<rect id="Icon" width="18.000000" height="18.343800" fill="white" fill-opacity="0"/>
		</clipPath>
	</defs>
	<g clip-path="url(#clip1_2970)">
		<path id="Vector" d="M8.80237 2.33417C10.5221 2.33658 12.1796 2.9776 13.4534 4.13293C14.7272 5.28827 15.5265 6.87552 15.6962 8.58682C15.866 10.2981 15.3941 12.0115 14.3721 13.3945C13.35 14.7776 11.8508 15.7318 10.1651 16.072C8.47934 16.4121 6.72736 16.1141 5.24896 15.2357C3.77054 14.3573 2.67108 12.961 2.16385 11.3178C1.65662 9.67465 1.77774 7.90164 2.50378 6.34271C3.2298 4.78381 4.50897 3.55011 6.09311 2.88092C6.95023 2.51825 7.8717 2.33231 8.80237 2.33417ZM8.80237 1.49805C4.49512 1.49805 1.00525 4.9892 1.00525 9.29544C1.00525 13.6017 4.49615 17.0926 8.80237 17.0926C13.1086 17.0926 16.601 13.6017 16.601 9.29544C16.601 4.9892 13.1089 1.49805 8.80237 1.49805Z" fill="#C0C0C0" fill-opacity="1.000000" fill-rule="nonzero"/>
		<path id="Vector" d="M9.46875 1.96338C9.46875 1.96338 12.2051 3.45825 12.2051 9.4884C12.2051 15.0625 9.26605 16.6587 9.26605 16.6587" stroke="#C0C0C0" stroke-opacity="1.000000" stroke-width="0.836112"/>
		<path id="Vector" d="M8.26294 1.96338C8.26294 1.96338 5.32617 3.45825 5.32617 9.4884C5.32617 15.0625 8.48059 16.6587 8.48059 16.6587" stroke="#C0C0C0" stroke-opacity="1.000000" stroke-width="0.836112"/>
		<path id="Vector" d="M2.53912 5.34619C2.53912 5.34619 5.3515 5.95428 8.7973 5.95428C12.1924 5.95428 14.8528 5.34619 14.8528 5.34619" stroke="#C0C0C0" stroke-opacity="1.000000" stroke-width="0.836112"/>
		<path id="Vector" d="M14.8528 13.2004C14.8528 13.2004 12.0404 12.5923 8.5946 12.5923C5.19949 12.5923 2.53912 13.2004 2.53912 13.2004" stroke="#C0C0C0" stroke-opacity="1.000000" stroke-width="0.836112"/>
		<path id="Vector" d="M1.50031 9.29883L16.0943 9.29883" stroke="#C0C0C0" stroke-opacity="1.000000" stroke-width="0.836112"/>
	</g>
</svg>
